<?xml version="1.0" encoding="iso-8859-1"?>
<!-- Generator: Adobe Illustrator 19.0.0, SVG Export Plug-In . SVG Version: 6.00 Build 0)  -->
<svg version="1.1" id="Layer_1" xmlns="http://www.w3.org/2000/svg" xmlns:xlink="http://www.w3.org/1999/xlink" x="0px" y="0px"
	 viewBox="0 0 512 512" style="enable-background:new 0 0 512 512;" xml:space="preserve">
<path style="fill:#57555C;" d="M468.431,322.775l-0.623-1.264L339.342,150.964l-1.088-0.976
	c-1.913-1.717-47.744-41.306-126.857,18.284c-4.363,3.287-8.56,6.673-12.477,10.065l9.822,11.344l0,0L312.67,451.918l0,0
	l-4.699,14.251c6.925,2.284,15.306,3.926,25.088,3.926c21.047,0,48.577-7.605,82.024-32.792
	C494.257,377.661,469.522,324.988,468.431,322.775z"/>
<g>
	<polygon style="fill:#E1E1E4;" points="326.943,394.662 308.367,371.092 378.845,316.146 397.421,339.717 	"/>
	<polygon style="fill:#E1E1E4;" points="326.289,312.593 307.712,289.021 342.024,262.429 360.6,286 	"/>
</g>
<path style="fill:#AEADB3;" d="M328.007,237.348v214.27l-0.25,1.321C327.307,455.349,315.422,512,216.455,512h-0.4
	c-98.507-0.16-111.201-58.902-111.691-61.413l-0.27-1.371v-214.27l0.25-1.331c0.46-2.411,12.335-59.052,111.301-59.052h0.41
	c98.507,0.16,111.191,58.902,111.681,61.403L328.007,237.348z"/>
<g>
	<rect x="163.781" y="266.909" style="fill:#FFFFFF;" width="106.54" height="30.011"/>
	<rect x="163.781" y="330.433" style="fill:#FFFFFF;" width="106.54" height="30.011"/>
	<rect x="163.781" y="393.956" style="fill:#FFFFFF;" width="106.54" height="30.011"/>
</g>
<polygon style="fill:#AEADB3;" points="393.031,20.958 216.055,202.365 39.07,20.958 60.548,0 216.055,159.389 366.861,4.812 
	371.553,0 376.485,4.812 "/>
<path style="fill:#8B8892;" d="M328.007,237.348v214.27l-0.25,1.321C327.307,455.349,315.422,512,216.455,512h-0.4V174.565
	c98.507,0.16,111.191,58.902,111.681,61.403L328.007,237.348z"/>
<g>
	<rect x="216.05" y="266.909" style="fill:#E1E1E4;" width="54.27" height="30.011"/>
	<rect x="216.05" y="330.433" style="fill:#E1E1E4;" width="54.27" height="30.011"/>
	<rect x="216.05" y="393.956" style="fill:#E1E1E4;" width="54.27" height="30.011"/>
</g>
<polygon style="fill:#8B8892;" points="393.031,20.958 216.055,202.365 216.055,159.389 366.861,4.812 376.485,4.812 "/>
<g>
</g>
<g>
</g>
<g>
</g>
<g>
</g>
<g>
</g>
<g>
</g>
<g>
</g>
<g>
</g>
<g>
</g>
<g>
</g>
<g>
</g>
<g>
</g>
<g>
</g>
<g>
</g>
<g>
</g>
</svg>
